<svg version="1.1" xmlns="http://www.w3.org/2000/svg" xmlns:xlink="http://www.w3.org/1999/xlink" width="1000px" height="1000px" viewBox="0,0,256,256"><g fill="#ce1313" fill-rule="nonzero" stroke="none" stroke-width="1" stroke-linecap="butt" stroke-linejoin="miter" stroke-miterlimit="10" stroke-dasharray="" stroke-dashoffset="0" font-family="none" font-weight="none" font-size="none" text-anchor="none" style="mix-blend-mode: normal"><g transform="translate(-0.00008,0.00024) scale(0.256,0.256)"><g><g transform="translate(0,511) scale(0.1,-0.1)"><path d="M3803.5,4355.3c-908.9,-123.2 -1736.9,-527.6 -2405.1,-1172.7c-695.2,-672 -1105.3,-1477 -1265.1,-2478.3c-44.3,-271.5 -44.3,-914.7 0,-1186.2c152,-955.1 531.4,-1727.3 1164.9,-2380.1c833.8,-853 1894.8,-1301.7 3086.8,-1301.7c639.3,0 1222.8,130.9 1837,410.1c631.6,288.8 1217,415.9 1798.5,392.8c477.5,-21.2 828,-115.5 1247.8,-331.2c267.7,-138.7 325.4,-150.2 458.3,-84.7c196.4,94.4 233,360.1 73.2,510.3c-84.7,80.9 -481.4,275.4 -737.5,364c-348.5,119.4 -631.6,165.6 -1074.5,181l-389,11.5l115.5,144.4c379.4,475.6 687.5,1109.2 826.1,1696.5c333.1,1421.1 -92.4,2942.3 -1109.2,3970.6c-691.2,701 -1546.1,1128.5 -2518.6,1255.6c-279.2,36.6 -831.9,34.7 -1109.1,-1.9zM4621.8,3303.9c329.3,-82.8 614.3,-408.2 670.1,-764.5c69.3,-456.4 -234.9,-912.7 -689.4,-1032.1c-523.8,-134.8 -1053.3,217.6 -1145.7,764.5c-71.3,419.8 192.6,858.8 602.7,1010.9c167.6,61.6 375.6,69.3 562.3,21.2zM2465.1,1757.6c163.7,-44.3 292.7,-119.4 425.6,-250.3c454.5,-446.8 329.3,-1199.7 -244.5,-1480.8c-668.2,-327.4 -1426.9,223.4 -1326.7,959c75,539.1 621.9,906.9 1145.6,772.1zM6751.6,1751.8c568,-157.9 849.2,-791.4 585.4,-1315.2c-61.6,-121.3 -236.8,-310 -346.6,-375.5c-469.9,-275.3 -1070.7,-100.1 -1307.5,381.3c-182.9,367.8 -115.5,781.8 169.5,1064.9c250.3,248.4 571.8,335 899.2,244.5zM4510.2,455.9c123.2,-46.2 236.8,-209.9 236.8,-344.7c0,-86.7 -57.8,-208 -127.1,-273.5c-196.4,-182.9 -535.3,-82.8 -606.6,181c-61.6,229.2 115.5,458.3 352.4,458.3c50.1,0.1 113.7,-9.6 144.5,-21.1zM3354.8,-776.5c236.8,-80.9 427.5,-254.2 539.2,-491c59.7,-125.2 71.2,-169.5 78.9,-327.4c11.6,-225.3 -27,-383.2 -130.9,-543c-327.4,-504.5 -997.5,-593.1 -1423,-186.8c-554.6,527.6 -277.3,1446.2 479.5,1588.6c119.3,23.1 327.3,5.8 456.3,-40.4zM5856.2,-738c437.1,-79 758.7,-464.1 758.7,-908.9c0,-279.2 -86.7,-483.3 -286.9,-675.9c-362,-342.8 -912.7,-344.7 -1270.9,-1.9c-367.8,350.5 -390.9,916.6 -52,1294c217.6,240.7 535.3,350.5 851.1,292.7z"></path></g></g></g></g></svg>